<svg width="60" height="60" viewBox="0 0 60 60" fill="none" xmlns="http://www.w3.org/2000/svg">
  <rect width="60" height="60" rx="12" fill="#25D366"/>
  <path d="M30 8C18.954 8 10 16.954 10 28c0 3.618.967 7.024 2.658 9.952L10 52l14.348-2.618C26.976 51.033 28.382 52 30 52c11.046 0 20-8.954 20-20S41.046 8 30 8z" fill="white"/>
  <path d="M24 22c0-1.104.896-2 2-2h8c1.104 0 2 .896 2 2v8c0 1.104-.896 2-2 2h-8c-1.104 0-2-.896-2-2v-8z" fill="#25D366"/>
  <path d="M20 28c0-1.104.896-2 2-2h4v4h-4c-1.104 0-2-.896-2-2z" fill="#25D366"/>
  <path d="M34 30h4c1.104 0 2 .896 2 2s-.896 2-2 2h-4v-4z" fill="#25D366"/>
  <path d="M26 36h8c1.104 0 2 .896 2 2s-.896 2-2 2h-8c-1.104 0-2-.896-2-2s.896-2 2-2z" fill="#25D366"/>
</svg>